<!DOCTYPE svg PUBLIC "-//W3C//DTD SVG 1.1//EN" "http://www.w3.org/Graphics/SVG/1.1/DTD/svg11.dtd">
<!-- Uploaded to: SVG Repo, www.svgrepo.com, Transformed by: SVG Repo Mixer Tools -->
<svg fill="#000000" width="68px" height="68px" viewBox="0 0 24 24" xmlns="http://www.w3.org/2000/svg" transform="matrix(1, 0, 0, 1, 0, 0)">
<g id="SVGRepo_bgCarrier" stroke-width="0"/>
<g id="SVGRepo_tracerCarrier" stroke-linecap="round" stroke-linejoin="round" stroke="#CCCCCC" stroke-width="0.24000000000000005"/>
<g id="SVGRepo_iconCarrier">
<path d="M3,22H21a1,1,0,0,0,1-1.077l-1-13A1,1,0,0,0,20,7H17A5,5,0,0,0,7,7H4a1,1,0,0,0-1,.923l-1,13A1,1,0,0,0,3,22ZM12,4a3,3,0,0,1,3,3H9A3,3,0,0,1,12,4ZM4.926,9H7v2a1,1,0,0,0,2,0V9h6v2a1,1,0,0,0,2,0V9h2.074l.846,11H4.08Z"/>
</g>
</svg>